<svg xmlns="http://www.w3.org/2000/svg" viewBox="0 0 512 512"><defs><style>.cls-1{fill:#00558d;}.cls-2{fill:#fff;}</style></defs><g id="Layer_2" data-name="Layer 2"><g id="google_icon" data-name="google icon"><g id="logo"><rect class="cls-1" width="512" height="512" rx="60"/><g id="app_icon" data-name="app icon"><path class="cls-2" d="M227,107.94h0a14.22,14.22,0,0,0,14.12-14.33V65.47A14.22,14.22,0,0,0,227,51.15h0a14.22,14.22,0,0,0-14.11,14.32V93.61A14.22,14.22,0,0,0,227,107.94Z"/><path class="cls-2" d="M285,107.94h0a14.22,14.22,0,0,0,14.11-14.33V65.47A14.22,14.22,0,0,0,285,51.15h0a14.22,14.22,0,0,0-14.12,14.32V93.61A14.22,14.22,0,0,0,285,107.94Z"/><path class="cls-2" d="M343.11,107.94h0a14.22,14.22,0,0,0,14.11-14.33V65.47a14.22,14.22,0,0,0-14.11-14.32h0A14.22,14.22,0,0,0,329,65.47V93.61A14.22,14.22,0,0,0,343.11,107.94Z"/><path class="cls-2" d="M168.89,107.94h0A14.22,14.22,0,0,0,183,93.61V65.47a14.22,14.22,0,0,0-14.12-14.32h0a14.22,14.22,0,0,0-14.11,14.32V93.61A14.22,14.22,0,0,0,168.89,107.94Z"/><path class="cls-2" d="M132.46,413.59a5,5,0,0,0,1.76-4.47c-.43-1.55-2-3.11-3-2.91-4.86.9-9.79,1.42-14.52,3-3.19,1.07-6.44,2-9.67,3v14.73c.42-.16.85-.3,1.26-.49C116.5,422.49,124.47,418,132.46,413.59Z"/><path class="cls-2" d="M130.62,398.62A17.59,17.59,0,0,1,135.74,386a2.82,2.82,0,0,0,.85-2.29c-.33-5.12-.7-10.24-1.32-15.33-.23-1.95-.45-2.1-2.15-1q-5.75,3.75-11.42,7.6c-5.09,3.47-9.82,7.43-14.69,11.2V405.7c7.12-2.41,14.51-3.64,21.83-5.12C130,400.35,130.61,400,130.62,398.62Z"/><path class="cls-2" d="M157.33,443.71a136.37,136.37,0,0,1-7.78-27.25c-.18-1.06-.64-1.28-1.59-1.17a12.55,12.55,0,0,1-4.52-.37,4,4,0,0,0-5,3.13,253.42,253.42,0,0,1-8.86,31.06c-1.43,4-3.2,7.79-4.66,11.75h16.88c.32-.32.63-.66,1-.95,4.74-4.22,9.35-8.58,13.86-13A2.57,2.57,0,0,0,157.33,443.71Z"/><path class="cls-2" d="M108.82,317.18a9.24,9.24,0,0,1-1.81-1.24v12.33c1.58-2.35,2.19-5.1,3.11-7.72C110.67,319,110.57,317.84,108.82,317.18Z"/><path class="cls-2" d="M185.33,415.35c2.73-3.4,5.5-6.77,8.25-10.15a2.16,2.16,0,0,0,.7-1.65c0-3.28-1.33-6.07-2.94-8.77-.43-.74-1.09-.69-1.78-.55-7.71,1.55-15.4,3.15-23.12,4.61-2,.38-3.31,1-3.38,3.32a8,8,0,0,1-.85,2.76c-.4.94-.23,1.37.74,1.8q10.2,4.47,20.35,9.07A1.46,1.46,0,0,0,185.33,415.35Z"/><path class="cls-2" d="M154.63,356.06c-.4-.39-.85,0-1.24.18-4.19,1.93-8.23,4.18-12.3,6.36a1.47,1.47,0,0,0-.92,1.64,136.85,136.85,0,0,1,1.73,17.15c0,.82.52.89,1.16.7a12.75,12.75,0,0,1,4.34-.45c1.16.08,1.57-.51,1.73-1.58a134,134,0,0,1,5.39-22.73C154.66,356.92,155,356.45,154.63,356.06Z"/><path class="cls-2" d="M201.42,432.23a1.86,1.86,0,0,0-1.22-2.14q-6.52-3.21-13-6.48a1.58,1.58,0,0,0-2.21.47c-6.23,7.35-12.89,14.3-19.52,21.27a2.15,2.15,0,0,0-.46,2.73,137.25,137.25,0,0,0,6.82,12.78h30.72c2.25-5.51,2.9-11.34,3.28-17.21a2.61,2.61,0,0,0-.92-2.23A10.35,10.35,0,0,1,201.42,432.23Z"/><path class="cls-2" d="M222.89,372.37c1.47,1.41,2.9,2.87,4.35,4.29a2.29,2.29,0,0,0,1.75.86,8,8,0,0,0,1-.27A127.47,127.47,0,0,0,257.55,363c1.2-.83,1-1.42.28-2.42-5.9-7.82-13.77-12.6-22.91-15.46-1.3-.4-1.8,0-2.18,1.26a154.84,154.84,0,0,1-10.13,23.84A1.53,1.53,0,0,0,222.89,372.37Z"/><path class="cls-2" d="M217.72,336.53a66.67,66.67,0,0,1,10.35,1.37c1.32.32,1.7-.22,2-1.35a103.55,103.55,0,0,0,2.51-21.2,80.44,80.44,0,0,0-.94-12.1,1.66,1.66,0,0,0-1.65-1.7,8.62,8.62,0,0,1-7.27-6.3c-.14-.44-.2-.9-.38-1.32a1.71,1.71,0,0,0-2-.87c-.7.11-.41.83-.38,1.3.94,13.65.2,27.15-3.45,40.39C216.08,336.09,216.44,336.43,217.72,336.53Z"/><path class="cls-2" d="M133.66,359.35a116.06,116.06,0,0,0-16.46-38.92c-.27-.41-.46-1.09-1-1.05-.72.05-.62.85-.77,1.36a51.73,51.73,0,0,1-3.8,10.58c-1.32,2.44-2.57,4.94-4.61,6.89v41.11a223.85,223.85,0,0,1,25.36-17.8C133.17,361,134,360.75,133.66,359.35Z"/><path class="cls-2" d="M218.94,376.9c-.9,1.47-1.78,3-2.85,4.74a37.2,37.2,0,0,0,6.16-1.78c.3-.09.55-.33.26-.62-.88-.87-1.79-1.71-2.71-2.52A.54.54,0,0,0,218.94,376.9Z"/><path class="cls-2" d="M213.07,344.41a74.41,74.41,0,0,1-5.57,10.93,1.91,1.91,0,0,0,.4,2.91c3,2.72,6,5.49,8.93,8.33,1.06,1,1.43.55,1.9-.45a202.77,202.77,0,0,0,8.92-21.24c.39-1.15.1-1.55-1-1.71-3.28-.47-6.55-1-10.26-1.2C214.7,341.44,213.86,342.58,213.07,344.41Z"/><path class="cls-2" d="M187.53,387.69c-.7-1.23-1.45-2.43-2.11-3.69-.55-1.07-1.06-1.05-1.9-.25-2.91,2.75-6,5.33-9.06,8,4.16-.87,8.32-1.76,12.49-2.62C187.94,389,187.94,388.42,187.53,387.69Z"/><path class="cls-2" d="M132,420.22c-.38-.24-.72.2-1,.38-7.86,4.42-15.79,8.68-24,12.51v12.36a15.35,15.35,0,0,0,12,15c.35-.83.69-1.66,1-2.48a222.44,222.44,0,0,0,12.09-36.56C132.2,421.05,132.48,420.52,132,420.22Z"/><path class="cls-2" d="M166.32,352.19a4.22,4.22,0,0,1-2.46.5,2.32,2.32,0,0,0-2.74,1.89c-.69,2.23-1.55,4.4-2.26,6.63a147.46,147.46,0,0,0-4.53,20.7,1.56,1.56,0,0,0,.78,1.74,17,17,0,0,1,7.34,8.86c.39,1,.82,1,1.59.39,5.73-4.5,11.5-9,16.81-14a1.56,1.56,0,0,0,.34-2.35c-.67-1-1.24-2-1.83-3.07q-5.7-10-10.71-20.4C168.07,351.9,167.48,351.55,166.32,352.19Z"/><path class="cls-2" d="M159.43,411.48c-.36-.15-.74-.25-1-.35-1.75.08-3.89,2.73-3.6,4.38a136.71,136.71,0,0,0,6.61,24c.49,1.31,1,1.29,1.83.35,2.89-3.11,5.84-6.16,8.72-9.29,2.64-2.87,5.2-5.83,7.81-8.74.7-.77.75-1.22-.34-1.73C172.86,417,166.12,414.31,159.43,411.48Z"/><path class="cls-2" d="M109.2,300a9.6,9.6,0,0,1,10.4-.43,9.74,9.74,0,0,1,5.23,9c0,1.34.33,1.78,1.52,2.06a136.37,136.37,0,0,1,17.27,5.27l4.17,1.6A152.88,152.88,0,0,0,107,282v18.5C108,301.37,108.53,300.45,109.2,300Z"/><path class="cls-2" d="M389.83,82.42H361.3V97.68a18.33,18.33,0,0,1-18.19,18.47h0a18.34,18.34,0,0,1-18.2-18.47V82.42H303.23V97.68A18.33,18.33,0,0,1,285,116.15h0a18.33,18.33,0,0,1-18.2-18.47V82.42H245.16V97.68a18.2,18.2,0,1,1-36.39,0V82.42H187.09V97.68a18.34,18.34,0,0,1-18.2,18.47h0A18.33,18.33,0,0,1,150.7,97.68V82.42H122.17A15.28,15.28,0,0,0,107,97.81V275.86a112.79,112.79,0,0,1,14.46,9.43,188.88,188.88,0,0,1,25.25,22.13,31.26,31.26,0,0,0,3.57,3.75,3.47,3.47,0,0,0-.3-2.07,209.25,209.25,0,0,1-7.14-36,125.59,125.59,0,0,1-.81-16.23c0-1.26.33-1.8,1.64-1.57,4.19.74,3.83-.58,3.86,4.24.08,13.54,2.43,26.77,5.39,40,.59-.35.46-.89.55-1.32s.1-.91.19-1.36a60,60,0,0,1,15.14-30.07,2.56,2.56,0,0,0,.75-2.44,6.58,6.58,0,0,1,6-7.6,6.48,6.48,0,0,1,6.64,6.5c0,3.92-3.06,7.11-6.82,6.48-2.31-.39-3.41.62-4.64,2.11-9.73,11.77-13.89,25.39-13,40.64a35.77,35.77,0,0,0,2.81,10.71,2.49,2.49,0,0,0,1.08,1.27c1.89,1.14,3.79,2.25,5.65,3.43.76.48,1.23.4,1.55-.46a4.45,4.45,0,0,1,.39-.75c1.21-2,1.67-3.59.28-6.09a9.7,9.7,0,1,1,17.93-7.13,10,10,0,0,1-7.84,12.71,5.29,5.29,0,0,1-2.34,0c-1.55-.46-2.21.25-2.82,1.56-1.64,3.47-1.67,3.43,1.47,5.55q4,2.72,7.94,5.51a2.54,2.54,0,0,0,2.18.5,124.5,124.5,0,0,1,23.07-2.86,1.59,1.59,0,0,0,1.69-1.31,102.5,102.5,0,0,0,3.8-20.84,110.77,110.77,0,0,0-.23-20.68c-.15-1.34-.53-1.91-1.92-1.93-2.3,0-4.6-.18-6.9-.32a2.44,2.44,0,0,0-2.28,1.08,5.38,5.38,0,0,1-7.68,1.07,3.08,3.08,0,0,0-3-.45,58.32,58.32,0,0,0-11.82,4.51c-1.13.61-1.74.5-2.31-.78-1.54-3.46-1.86-2.76,1.47-4.33a50.15,50.15,0,0,1,12-4.08,2.32,2.32,0,0,0,2-1.53,5.24,5.24,0,0,1,9-1.53,2.84,2.84,0,0,0,2.59,1.18,38.13,38.13,0,0,1,6.23.28c1.07.08,1.58-.16,1.31-1.43a91.28,91.28,0,0,0-9.9-26.82,1.59,1.59,0,0,0-1.92-.88,7.61,7.61,0,0,1-8-4.66,8,8,0,0,1,2-9.05,7.66,7.66,0,0,1,9.41-.38c2.93,2.16,4.28,5.89,2.92,9.06a3.86,3.86,0,0,0,.49,4c4.71,7.88,7.57,16.53,9.81,25.41a21.57,21.57,0,0,1,.7,3.34c.14,1.77,1,2.54,2.69,2.86a2.08,2.08,0,0,0,2.57-1.16c2.11-3.45,5.37-4.57,9.17-4a8.57,8.57,0,0,1,7.24,6.13,8.74,8.74,0,0,1-2,9.63,3.79,3.79,0,0,0-1.11,3.9,75.17,75.17,0,0,1,.53,21A86.55,86.55,0,0,1,235.18,338c-.34,1.3.37,1.58,1.31,1.88A56.27,56.27,0,0,1,249,345.4a45.58,45.58,0,0,1,13.13,11.89c.79,1.08,1.27,1.22,2.3.22,2.12-2,4.25-4.07,6.3-6.19a1.73,1.73,0,0,0,.45-2.23,8.88,8.88,0,0,1,1.51-10,9.4,9.4,0,0,1,16.55,5.34c.68,6.25-5.55,11.69-11.57,10a2.91,2.91,0,0,0-3.55,1.08,59,59,0,0,1-6.87,6.82,1.61,1.61,0,0,0-.43,2.24A50.15,50.15,0,0,1,271.48,380a1.89,1.89,0,0,0,1.1,1.6,5.19,5.19,0,0,1,3,4.43,2.33,2.33,0,0,0,1.71,2.26l.15.08c2.44,1.67,4.48,2.35,7.52.32,4-2.69,9.17-.46,11.86,4.16.17.29.37.56.56.85v6.16c-1.86,4.49-5.17,6.62-10,6.24a1.94,1.94,0,0,0-2,1.16q-4.67,8.34-10,16.26a2.22,2.22,0,0,0-.13,2.64,9.73,9.73,0,1,1-17.33.62A9.24,9.24,0,0,1,269,421.5a2,2,0,0,0,2.54-1q4.83-7.95,9.74-15.84a1.5,1.5,0,0,0-.11-2c-1-1.21-1.92-2.66-1.66-4.19.53-3.16-1.27-4.41-3.65-5.39a5.14,5.14,0,0,1-.9-.47,2.3,2.3,0,0,0-2.67-.05,5.15,5.15,0,0,1-3.75.56,6.22,6.22,0,0,1-2.92-10.42c.56-.59,1.09-1.07.9-2A54.78,54.78,0,0,0,262.59,368c-.52-1.15-1.06-1.23-2-.51a116.06,116.06,0,0,1-26.22,14c-1.18.47-1.54.71-.44,1.85,3.94,4.07,7.82,8.2,11.58,12.45,1.37,1.54,2.53,2.9,4.77,1.81a1.76,1.76,0,0,1,.83,0,7.37,7.37,0,1,1-1.13,14.7,7.36,7.36,0,0,1-6-8.92,2.34,2.34,0,0,0-.56-2.31c-4.83-5.58-10.06-10.76-15-16.2a1.82,1.82,0,0,0-2.26-.42c-2.78.92-5.53,2.13-8.38,2.6-4.37.72-7.44,2.81-9.15,6.94a2.52,2.52,0,0,1-.28.44,1.48,1.48,0,0,0,0,1.73c2.3,4.63,1,8.73-3.49,11.23-.66.37-.92.69-.63,1.45a133.11,133.11,0,0,1,4.4,12.94,1,1,0,0,0,1.36.87c7-1.38,13.34,4.44,12.31,12.09a1.58,1.58,0,0,0,1,1.85q19,10.58,38,21.22c1.75,1,3.72,1.65,5.19,3.13h123.5A15.28,15.28,0,0,0,405,445.47V97.81A15.28,15.28,0,0,0,389.83,82.42Z"/><path class="cls-2" d="M220.34,441.19a1.35,1.35,0,0,0-1.8.25,8.83,8.83,0,0,1-6,2.34c-1.05,0-1.49.37-1.53,1.49a60.81,60.81,0,0,1-2.74,15.59H255.2c-.14-.11-.26-.23-.4-.32Q237.57,450.88,220.34,441.19Z"/><path class="cls-2" d="M155,328.43a3.69,3.69,0,0,0-2-2.52,117.23,117.23,0,0,0-18.49-7.38c-3.6-1.13-7.26-2-10.42-2.9-1.18-.09-1.72.19-2.06.72-.44.7,0,1.22.34,1.72a135.91,135.91,0,0,1,10.38,20.14,136.4,136.4,0,0,1,5.82,17.86c.18.74.21,1.72,1.46,1q7.23-4.06,14.83-7.38c.77-.35,1-.76.58-1.59a8.52,8.52,0,0,1,1.72-9.92,1.69,1.69,0,0,0,.4-2C156.61,333.64,155.72,331.05,155,328.43Z"/><path class="cls-2" d="M209.15,383.19c1.88-3.25,3.74-6.51,5.63-9.75.4-.68.48-1.22-.15-1.8q-5.06-4.67-10.09-9.35c-.54-.5-1-.64-1.53.08a125.92,125.92,0,0,1-13.52,15.72,1.34,1.34,0,0,0-.31,1.82c1.31,2.26,2.6,4.54,3.89,6.81a1.32,1.32,0,0,0,1.39.76,4,4,0,0,0,.5-.06l12.65-3A2.32,2.32,0,0,0,209.15,383.19Z"/><path class="cls-2" d="M190.53,419.09l12.8,6.31c.35-.39.19-.73.13-1-1.15-5.18-3.15-10.09-4.84-15.1-.3-.87-.67-.91-1.26-.19q-3.53,4.35-7.09,8.68C189.79,418.32,189.86,418.76,190.53,419.09Z"/><path class="cls-2" d="M159.49,451.65q-4.62,4.62-9.27,9.21h15.53a96,96,0,0,1-4.69-8.71C160.71,451.4,160.38,450.76,159.49,451.65Z"/><path class="cls-2" d="M183.43,345.42c-3,.84-5.94,1.74-8.94,2.49-1.52.38-1.94,1-1.16,2.45,1.9,3.63,3.64,7.35,5.56,11,2.05,3.87,4.23,7.67,6.4,11.47.25.44.45,1.62,1.4.61a125.68,125.68,0,0,0,12.08-14.27,1.33,1.33,0,0,0-.31-2.14c-4.51-3.58-9-7.2-13.51-10.8A2.56,2.56,0,0,0,183.43,345.42Z"/><path class="cls-2" d="M170.14,336.46c-.58.62-1.25,1.46-.72,2.43a17.34,17.34,0,0,1,1.54,3.57c.18.62.61.74,1.19.55,1.75-.57,3.5-1.11,5.68-1.79-2.29-1.58-4.2-2.94-6.15-4.24C171.22,336.67,170.73,335.82,170.14,336.46Z"/><path class="cls-2" d="M207.33,341.89a123.54,123.54,0,0,0-15.21,1.83c-.26,0-.61,0-.7.36s.25.59.5.8c3.18,2.53,6.37,5.06,9.53,7.62.82.66,1.32.61,1.8-.38,1.47-2.95,3-5.88,4.48-8.82.12-.25.22-.52.32-.75C208.14,341.91,207.77,341.86,207.33,341.89Z"/></g></g></g></g></svg>