<svg xmlns="http://www.w3.org/2000/svg" viewBox="0 0 128.58 176"><defs><style>.cls-1{fill:#fff;}</style></defs><g id="Layer_2" data-name="Layer 2"><g id="product_icon" data-name="product icon"><g id="app_icon" data-name="app icon"><path class="cls-1" d="M12,0H116.58a12,12,0,0,1,12,12V25a0,0,0,0,1,0,0H0a0,0,0,0,1,0,0V12A12,12,0,0,1,12,0Z"/><path class="cls-1" d="M0,32H40.58a0,0,0,0,1,0,0V176a0,0,0,0,1,0,0H11.91A11.91,11.91,0,0,1,0,164.09V32A0,0,0,0,1,0,32Z"/><rect class="cls-1" x="48.58" y="32" width="80" height="60"/><path class="cls-1" d="M48.58,100h80a0,0,0,0,1,0,0v63.69A12.31,12.31,0,0,1,116.26,176H48.58a0,0,0,0,1,0,0V100A0,0,0,0,1,48.58,100Z"/></g></g></g></svg>