<svg xmlns="http://www.w3.org/2000/svg" viewBox="0 0 128 176"><defs><style>.cls-1{fill:#fff;}</style></defs><g id="Layer_2" data-name="Layer 2"><g id="product_icon" data-name="product icon"><g id="app_icon" data-name="app icon"><path class="cls-1" d="M51.53,24.4h0a6.11,6.11,0,0,0,6.06-6.16V6.15A6.11,6.11,0,0,0,51.53,0h0a6.12,6.12,0,0,0-6.07,6.15V18.24A6.12,6.12,0,0,0,51.53,24.4Z"/><path class="cls-1" d="M76.47,24.4h0a6.12,6.12,0,0,0,6.07-6.16V6.15A6.12,6.12,0,0,0,76.47,0h0a6.11,6.11,0,0,0-6.06,6.15V18.24A6.11,6.11,0,0,0,76.47,24.4Z"/><path class="cls-1" d="M101.42,24.4h0a6.11,6.11,0,0,0,6.06-6.16V6.15A6.11,6.11,0,0,0,101.42,0h0a6.12,6.12,0,0,0-6.07,6.15V18.24A6.12,6.12,0,0,0,101.42,24.4Z"/><path class="cls-1" d="M26.58,24.4h0a6.12,6.12,0,0,0,6.07-6.16V6.15A6.12,6.12,0,0,0,26.58,0h0a6.11,6.11,0,0,0-6.06,6.15V18.24A6.11,6.11,0,0,0,26.58,24.4Z"/><path class="cls-1" d="M10.93,155.69a2.13,2.13,0,0,0,.76-1.92c-.19-.66-.86-1.33-1.3-1.25a45.79,45.79,0,0,0-6.24,1.3c-1.37.46-2.76.86-4.15,1.28v6.33c.18-.07.36-.13.54-.21C4.08,159.52,7.5,157.6,10.93,155.69Z"/><path class="cls-1" d="M10.14,149.26a7.52,7.52,0,0,1,2.2-5.42,1.19,1.19,0,0,0,.36-1c-.14-2.2-.3-4.4-.56-6.58-.1-.84-.2-.91-.93-.43-1.64,1.07-3.28,2.16-4.9,3.27C4.12,140.6,2.09,142.3,0,143.92v8.39a73.8,73.8,0,0,1,9.38-2.2C9.87,150,10.14,149.84,10.14,149.26Z"/><path class="cls-1" d="M21.61,168.63a59.05,59.05,0,0,1-3.34-11.7c-.08-.46-.27-.55-.68-.5a5.53,5.53,0,0,1-1.94-.16,1.72,1.72,0,0,0-2.16,1.34A109.71,109.71,0,0,1,9.69,171c-.62,1.71-1.38,3.35-2,5.05h7.25c.14-.14.27-.28.42-.41,2-1.81,4-3.68,6-5.59A1.1,1.1,0,0,0,21.61,168.63Z"/><path class="cls-1" d="M.78,114.28a4,4,0,0,1-.78-.53v5.3a13.65,13.65,0,0,0,1.33-3.32C1.57,115.06,1.53,114.56.78,114.28Z"/><path class="cls-1" d="M33.64,156.45c1.17-1.46,2.37-2.9,3.55-4.36a1,1,0,0,0,.3-.71,7.29,7.29,0,0,0-1.26-3.77c-.19-.31-.48-.29-.77-.23-3.31.66-6.62,1.35-9.93,2-.86.16-1.43.43-1.45,1.43a3.68,3.68,0,0,1-.37,1.18c-.17.41-.1.59.32.77,2.92,1.28,5.83,2.59,8.74,3.9A.62.62,0,0,0,33.64,156.45Z"/><path class="cls-1" d="M20.45,131c-.17-.16-.36,0-.53.08-1.8.83-3.53,1.79-5.28,2.73a.64.64,0,0,0-.4.71,58.62,58.62,0,0,1,.74,7.36c0,.36.23.38.51.31a5.32,5.32,0,0,1,1.86-.2c.5,0,.67-.22.74-.68a57.27,57.27,0,0,1,2.32-9.76C20.47,131.35,20.63,131.15,20.45,131Z"/><path class="cls-1" d="M40.55,163.7a.78.78,0,0,0-.52-.91q-2.81-1.38-5.59-2.79a.68.68,0,0,0-.95.2c-2.67,3.16-5.53,6.14-8.38,9.14a.92.92,0,0,0-.2,1.17A56.6,56.6,0,0,0,27.84,176H41a23.06,23.06,0,0,0,1.41-7.39,1.11,1.11,0,0,0-.39-1A4.45,4.45,0,0,1,40.55,163.7Z"/><path class="cls-1" d="M49.78,138c.63.6,1.24,1.23,1.86,1.84a1,1,0,0,0,.76.37,2.64,2.64,0,0,0,.42-.11A55,55,0,0,0,64.67,134c.51-.35.44-.61.11-1a18.91,18.91,0,0,0-9.84-6.64c-.56-.17-.77,0-.93.54a66,66,0,0,1-4.36,10.24A.67.67,0,0,0,49.78,138Z"/><path class="cls-1" d="M47.56,122.59a30.16,30.16,0,0,1,4.44.59c.57.14.73-.09.84-.58a44.9,44.9,0,0,0,1.08-9.1,34.72,34.72,0,0,0-.41-5.2c-.06-.47-.22-.66-.7-.73a3.71,3.71,0,0,1-3.13-2.71,4.58,4.58,0,0,0-.16-.56.73.73,0,0,0-.87-.38c-.29,0-.17.36-.16.56A51.49,51.49,0,0,1,47,121.83C46.85,122.41,47,122.55,47.56,122.59Z"/><path class="cls-1" d="M11.45,132.4a49.91,49.91,0,0,0-7.08-16.72c-.11-.18-.19-.47-.43-.45s-.27.36-.33.58A22.85,22.85,0,0,1,2,120.36a11.56,11.56,0,0,1-2,3V141a97.68,97.68,0,0,1,10.89-7.64C11.23,133.12,11.58,133,11.45,132.4Z"/><path class="cls-1" d="M48.08,139.94c-.39.63-.76,1.26-1.23,2a15.59,15.59,0,0,0,2.65-.76c.13,0,.24-.15.11-.27-.37-.37-.76-.73-1.16-1.08C48.32,139.74,48.17,139.79,48.08,139.94Z"/><path class="cls-1" d="M45.56,126a31.83,31.83,0,0,1-2.39,4.69.82.82,0,0,0,.17,1.25q1.95,1.76,3.83,3.58c.46.44.62.24.82-.19a87.85,87.85,0,0,0,3.83-9.12c.17-.5,0-.67-.42-.74-1.41-.2-2.81-.42-4.41-.52C46.26,124.7,45.9,125.19,45.56,126Z"/><path class="cls-1" d="M34.59,144.57c-.3-.53-.63-1-.91-1.58s-.45-.45-.81-.11c-1.25,1.18-2.57,2.29-3.9,3.45,1.79-.37,3.58-.76,5.37-1.12C34.76,145.12,34.77,144.88,34.59,144.57Z"/><path class="cls-1" d="M10.74,158.54c-.16-.1-.31.09-.45.17C6.91,160.6,3.5,162.44,0,164.08v5.31a6.59,6.59,0,0,0,5.14,6.46c.14-.35.29-.71.44-1.06a96.4,96.4,0,0,0,5.2-15.71C10.82,158.9,10.94,158.67,10.74,158.54Z"/><path class="cls-1" d="M25.48,129.32a1.8,1.8,0,0,1-1.06.21,1,1,0,0,0-1.18.82c-.29,1-.67,1.89-1,2.84a63,63,0,0,0-1.94,8.9.65.65,0,0,0,.33.74,7.3,7.3,0,0,1,3.15,3.81c.17.44.36.43.69.17,2.46-1.94,4.94-3.85,7.22-6a.66.66,0,0,0,.14-1c-.29-.43-.53-.88-.78-1.33-1.64-2.86-3.16-5.79-4.6-8.76C26.23,129.19,26,129,25.48,129.32Z"/><path class="cls-1" d="M22.52,154.79a3.94,3.94,0,0,0-.45-.15,2,2,0,0,0-1.54,1.88,58.41,58.41,0,0,0,2.84,10.32c.21.56.41.55.78.15,1.24-1.34,2.51-2.65,3.75-4s2.23-2.51,3.35-3.75c.3-.34.33-.53-.14-.75C28.28,157.17,25.39,156,22.52,154.79Z"/><path class="cls-1" d="M.94,106.91a4.14,4.14,0,0,1,4.47-.18,4.16,4.16,0,0,1,2.24,3.85c0,.58.15.77.65.89a58.22,58.22,0,0,1,7.42,2.26l1.8.69A65.9,65.9,0,0,0,0,99.18v7.95C.41,107.49.65,107.09.94,106.91Z"/><path class="cls-1" d="M121.49,13.44H109.24V20a7.87,7.87,0,0,1-7.82,7.93h0A7.87,7.87,0,0,1,93.6,20V13.44H84.29V20a7.87,7.87,0,0,1-7.82,7.93h0A7.87,7.87,0,0,1,68.66,20V13.44H59.34V20a7.82,7.82,0,1,1-15.63,0V13.44H34.4V20a7.87,7.87,0,0,1-7.82,7.93h0A7.87,7.87,0,0,1,18.76,20V13.44H6.51A6.56,6.56,0,0,0,0,20V96.53a49.73,49.73,0,0,1,6.21,4,81.66,81.66,0,0,1,10.85,9.51,13.52,13.52,0,0,0,1.53,1.61,1.43,1.43,0,0,0-.13-.89A88.53,88.53,0,0,1,15.4,95.33a54.07,54.07,0,0,1-.36-7c0-.54.15-.77.71-.67,1.8.31,1.65-.25,1.66,1.82a80.34,80.34,0,0,0,2.31,17.17c.26-.15.2-.38.24-.57s0-.39.08-.58a25.84,25.84,0,0,1,6.51-12.92,1.1,1.1,0,0,0,.32-1,2.83,2.83,0,0,1,2.57-3.27,2.79,2.79,0,0,1,2.86,2.79,2.63,2.63,0,0,1-2.93,2.79,1.89,1.89,0,0,0-2,.9,24.25,24.25,0,0,0-5.58,17.46,15.41,15.41,0,0,0,1.21,4.6,1.06,1.06,0,0,0,.47.55c.81.49,1.62,1,2.42,1.47.33.21.53.17.67-.2a1.41,1.41,0,0,1,.17-.32,2.22,2.22,0,0,0,.12-2.61,4.17,4.17,0,1,1,7.7-3.07,4.28,4.28,0,0,1-3.37,5.46,2.26,2.26,0,0,1-1,0c-.67-.2-.95.11-1.22.67-.7,1.49-.71,1.47.64,2.38,1.14.78,2.28,1.57,3.41,2.37a1.1,1.1,0,0,0,.93.22,54.27,54.27,0,0,1,9.91-1.24.67.67,0,0,0,.73-.56,43.8,43.8,0,0,0,1.63-9,47.05,47.05,0,0,0-.1-8.88c-.06-.58-.23-.83-.82-.83-1,0-2-.08-3-.14a1.06,1.06,0,0,0-1,.47,2.31,2.31,0,0,1-3.29.46,1.33,1.33,0,0,0-1.28-.2,25,25,0,0,0-5.08,1.94c-.48.26-.75.22-1-.34-.66-1.48-.8-1.18.63-1.86a21.82,21.82,0,0,1,5.14-1.75,1,1,0,0,0,.85-.66,2.25,2.25,0,0,1,3.85-.65,1.23,1.23,0,0,0,1.12.5,17.05,17.05,0,0,1,2.67.12c.46,0,.68-.06.56-.61a39.17,39.17,0,0,0-4.25-11.52.68.68,0,0,0-.82-.38,3.28,3.28,0,0,1-3.45-2,3.44,3.44,0,0,1,.87-3.89,3.37,3.37,0,0,1,5.3,3.73,1.66,1.66,0,0,0,.2,1.73,39.65,39.65,0,0,1,4.22,10.91,9,9,0,0,1,.3,1.44,1.19,1.19,0,0,0,1.16,1.22.89.89,0,0,0,1.1-.49,4,4,0,0,1,7.05.89,3.76,3.76,0,0,1-.88,4.14,1.63,1.63,0,0,0-.48,1.68,32.36,32.36,0,0,1,.23,9,37.39,37.39,0,0,1-1,6.15c-.15.56.15.68.56.81A24.05,24.05,0,0,1,61,126.4a19.64,19.64,0,0,1,5.64,5.11c.34.47.55.52,1,.1.91-.88,1.82-1.75,2.7-2.66a.73.73,0,0,0,.19-1,3.82,3.82,0,0,1,.66-4.31A4,4,0,0,1,78.28,126a4.06,4.06,0,0,1-5,4.29,1.26,1.26,0,0,0-1.52.47,25.51,25.51,0,0,1-3,2.93.69.69,0,0,0-.19,1,21.24,21.24,0,0,1,2,6.65.81.81,0,0,0,.47.69,2.24,2.24,0,0,1,1.3,1.9,1,1,0,0,0,.73,1l.06,0a2.48,2.48,0,0,0,3.24.13c1.72-1.15,3.93-.2,5.09,1.79.07.13.16.24.24.37v2.64a3.93,3.93,0,0,1-4.28,2.68.83.83,0,0,0-.87.5c-1.34,2.39-2.77,4.72-4.31,7a1,1,0,0,0,0,1.13,4.18,4.18,0,1,1-7.44.26,4,4,0,0,1,4.75-2.27.85.85,0,0,0,1.09-.41c1.38-2.27,2.78-4.54,4.18-6.8a.64.64,0,0,0,0-.86,2.36,2.36,0,0,1-.71-1.8c.23-1.35-.54-1.89-1.57-2.31a2,2,0,0,1-.38-.21,1,1,0,0,0-1.15,0,2.21,2.21,0,0,1-1.61.25,2.68,2.68,0,0,1-1.26-4.48c.24-.26.47-.46.39-.88a23.31,23.31,0,0,0-1.68-5.46c-.22-.49-.45-.53-.87-.22a49.81,49.81,0,0,1-11.27,6c-.51.2-.66.31-.19.79,1.69,1.75,3.36,3.53,5,5.35.58.66,1.08,1.25,2,.78a.72.72,0,0,1,.36,0,3.17,3.17,0,1,1-.48,6.32,3.17,3.17,0,0,1-2.6-3.83,1,1,0,0,0-.24-1c-2.07-2.39-4.32-4.62-6.46-7a.8.8,0,0,0-1-.18,23.74,23.74,0,0,1-3.6,1.12,4.71,4.71,0,0,0-3.93,3,1.22,1.22,0,0,1-.12.19.63.63,0,0,0,0,.74A3.35,3.35,0,0,1,42,153c-.29.16-.4.29-.27.62a57.74,57.74,0,0,1,1.89,5.56.43.43,0,0,0,.58.37,4.51,4.51,0,0,1,5.29,5.2.67.67,0,0,0,.44.79q8.16,4.54,16.32,9.12A9.58,9.58,0,0,1,68.44,176h53.05a6.56,6.56,0,0,0,6.51-6.61V20A6.56,6.56,0,0,0,121.49,13.44Z"/><path class="cls-1" d="M48.68,167.55a.57.57,0,0,0-.77.11,3.79,3.79,0,0,1-2.57,1c-.46,0-.65.17-.66.64A26.25,26.25,0,0,1,43.5,176H63.65a.55.55,0,0,0-.17-.13Z"/><path class="cls-1" d="M20.6,119.11a1.59,1.59,0,0,0-.86-1.08,50.47,50.47,0,0,0-7.95-3.17c-1.54-.49-3.11-.87-4.47-1.24-.51-.05-.74.08-.89.31s0,.52.15.73A59,59,0,0,1,11,123.32a58.22,58.22,0,0,1,2.5,7.67c.08.32.09.74.63.43,2.06-1.16,4.19-2.22,6.36-3.17.34-.15.41-.32.25-.68a3.68,3.68,0,0,1,.74-4.26.71.71,0,0,0,.17-.85C21.31,121.35,20.92,120.24,20.6,119.11Z"/><path class="cls-1" d="M43.88,142.64q1.2-2.1,2.41-4.19a.55.55,0,0,0-.06-.78l-4.34-4c-.23-.22-.43-.27-.65,0a54.35,54.35,0,0,1-5.81,6.76.56.56,0,0,0-.13.78c.56,1,1.11,2,1.67,2.93a.56.56,0,0,0,.59.32l.22,0,5.43-1.3A1,1,0,0,0,43.88,142.64Z"/><path class="cls-1" d="M35.88,158.06l5.49,2.71a.41.41,0,0,0,.06-.45,61.25,61.25,0,0,0-2.08-6.49c-.13-.37-.29-.39-.54-.08q-1.52,1.88-3.05,3.73C35.56,157.73,35.59,157.92,35.88,158.06Z"/><path class="cls-1" d="M22.54,172c-1.32,1.33-2.65,2.64-4,4h6.67a40.73,40.73,0,0,1-2-3.74C23.07,171.94,22.92,171.66,22.54,172Z"/><path class="cls-1" d="M32.83,126.41c-1.28.36-2.56.75-3.84,1.07-.66.16-.84.41-.5,1.06.82,1.55,1.56,3.15,2.39,4.7s1.81,3.3,2.75,4.93c.1.19.19.69.6.26a55.31,55.31,0,0,0,5.19-6.13.57.57,0,0,0-.14-.92c-1.94-1.53-3.87-3.09-5.8-4.64A1.1,1.1,0,0,0,32.83,126.41Z"/><path class="cls-1" d="M27.12,122.56c-.25.27-.54.63-.31,1a7.14,7.14,0,0,1,.66,1.53c.08.27.26.32.51.24.75-.25,1.5-.48,2.44-.77-1-.68-1.8-1.26-2.64-1.82C27.58,122.65,27.37,122.29,27.12,122.56Z"/><path class="cls-1" d="M43.09,124.9a53.12,53.12,0,0,0-6.53.78c-.11,0-.26,0-.3.16s.1.25.21.34c1.37,1.09,2.74,2.17,4.1,3.27.35.29.56.27.77-.16.63-1.27,1.28-2.53,1.92-3.79a2.84,2.84,0,0,0,.14-.32C43.44,124.9,43.28,124.88,43.09,124.9Z"/></g></g></g></svg>